<svg enable-background="new 0 0 87.318 83.411" height="83.411" viewBox="0 0 87.318 83.411" width="87.318" xmlns="http://www.w3.org/2000/svg"><g fill="#889597"><path d="m53.006 52.04c-2.338 1.627-5.553 1.049-7.178-1.291l-15.305-22.024c-1.627-2.339-1.047-5.554 1.289-7.18l15.629-15.885c2.338-1.624 5.553-1.046 7.176 1.292l20.018 28.803c1.628 2.34 1.05 5.553-1.29 7.178z"/><path d="m38.5 53.051c-1.315.914-3.123.589-4.035-.727l-8.606-12.384c-.914-1.317-.59-3.124.727-4.04l.316-3.044c1.313-.915 3.123-.587 4.035.727l11.254 16.197c.914 1.314.59 3.123-.728 4.036z"/><path d="m62.445 14.602 11.549-8.028c1.639-1.136 2.043-3.387.904-5.023-1.137-1.638-3.387-2.041-5.023-.903l-11.549 8.022z"/><path d="m74.219 31.541 11.549-8.024c1.639-1.139 2.041-3.388.905-5.024-1.139-1.638-3.391-2.043-5.026-.904l-11.547 8.023z"/><path d="m31.328 51.168c-3.998 2.502-8.035 5.289-11.875 8.168-3.842 2.901-7.586 5.953-10.881 9.326-1.631 1.688-3.168 3.469-4.291 5.363-1.109 1.896-1.752 3.903-.713 5.332.512.745 1.44 1.366 2.481 1.812 1.05.447 2.205.761 3.388.99 2.371.457 4.84.617 7.307.666-2.44.366-4.912.629-7.438.577-1.265-.03-2.543-.146-3.839-.452-1.28-.32-2.639-.834-3.772-1.939-.562-.547-1.023-1.256-1.303-2.023-.287-.767-.39-1.571-.392-2.338.019-1.536.406-2.921.881-4.204.982-2.562 2.357-4.799 3.812-6.936 2.938-4.252 6.287-8.07 9.75-11.756 3.494-3.684 7.057-7.166 10.906-10.602z"/></g></svg>