<svg enable-background="new 0 0 87.318 83.411" height="83.411" viewBox="0 0 87.318 83.411" width="87.318" xmlns="http://www.w3.org/2000/svg"><g fill="#889597"><path d="m8.921 36.1v-1.63l4.046-.7.146 2.475zm1.659 4.368.698-3.99 2.417.612-1.571 3.873zm2.068-8.852 1.571-.553 1.951 3.552-2.299.96zm.697 7.367 1.37-2.068 3.261 2.621-.932 1.31zm1.428-3.029 3.495-2.301.902 1.369-2.795 2.824z"/><path d="m21.352 36.1v-1.63l4.048-.7.145 2.475zm1.66 4.368.7-3.99 2.417.612-1.573 3.873zm2.067-8.852 1.573-.553 1.949 3.552-2.299.96zm.7 7.367 1.368-2.068 3.263 2.621-.934 1.31zm1.425-3.029 3.495-2.301.904 1.369-2.797 2.824z"/><path d="m33.786 36.1v-1.63l4.046-.7.146 2.475zm1.659 4.368.7-3.99 2.417.612-1.573 3.873zm2.067-8.852 1.573-.553 1.951 3.552-2.301.96zm.7 7.367 1.368-2.068 3.263 2.621-.932 1.31zm1.426-3.029 3.495-2.301.903 1.369-2.797 2.824z"/><path d="m59.464 60.879-14.073-14.575 5.182-5.001 8.891 9.208 22.611-23.418 5.18 5.004z"/><path d="m43.647 47.99-1.673-1.733h-38.677v-20.49h67.391v9.628l3.235-3.352v-9.512h-73.86v26.963h45.035z"/><path d="m73.833 49.494h.09v-.096z"/><path d="m43.647 47.99-1.673-1.733h-38.677v-20.49h67.391v9.628l3.235-3.352v-9.512h-73.86v26.963h45.035z"/><path d="m73.833 49.494h.09v-.096z"/></g></svg>